<svg width="2" height="2" viewBox="0 0 33 33" fill="none" xmlns="http://www.w3.org/2000/svg">
<path d="M16.4401 8.91624C9.77383 8.91624 5.10631 16.25 5.10631 16.25C5.10631 16.25 8.50631 23.5838 16.4401 23.5838C24.4401 23.5838 27.7738 16.25 27.7738 16.25C27.7738 16.25 23.1738 8.91624 16.4401 8.91624ZM16.4401 20.9162C13.8401 20.9162 11.7738 18.85 11.7738 16.25C11.7738 13.65 13.8401 11.5838 16.4401 11.5838C19.0401 11.5838 21.1063 13.65 21.1063 16.25C21.1063 18.85 19.0401 20.9162 16.4401 20.9162Z" fill="#5A5A5A"/>
<path d="M18.4401 16.25C18.4401 17.355 17.5451 18.25 16.4401 18.25C15.3351 18.25 14.4401 17.355 14.4401 16.25C14.4401 15.145 15.3351 14.25 16.4401 14.25C17.5451 14.25 18.4401 15.145 18.4401 16.25Z" fill="#5A5A5A"/>
</svg>
